<?xml version="1.0" encoding="UTF-8"?>
<svg width="48px" height="48px" viewBox="0 0 48 48" version="1.1" xmlns="http://www.w3.org/2000/svg" xmlns:xlink="http://www.w3.org/1999/xlink">
    <title>шо╛шобч│╗ч╗Я/ф╜УщкМх║жщЗП</title>
    <g id="шо╛шобч│╗ч╗Я/ф╜УщкМх║жщЗП" stroke="none" stroke-width="1" fill="none" fill-rule="evenodd">
        <rect id="хНаф╜Н" fill="#4787F0" x="0" y="0" width="48" height="48" rx="4"></rect>
        <rect id="хНаф╜Н" x="8" y="8" width="32" height="32"></rect>
        <path d="M33.3333333,11 C34.8060927,11 36,12.1939073 36,13.6666667 L36,35.3333333 C36,36.8060927 34.8060927,38 33.3333333,38 L15.6666667,38 C14.1939073,38 13,36.8060927 13,35.3333333 L13,13.6666667 C13,12.1939073 14.1939073,11 15.6666667,11 L33.3333333,11 Z M31.1486419,26.0753842 C29.5670185,24.4937608 26.999907,24.4965542 25.4148378,26.0816234 C23.8297686,27.6666926 23.8269752,30.2338041 25.4085986,31.8154275 C26.8288198,33.2356487 29.0436569,33.3783277 30.6285516,32.2450145 L31.8645875,33.4812879 C32.2599933,33.8766937 32.9017712,33.8759954 33.2980385,33.4797281 C33.6943058,33.0834608 33.6950042,32.4416829 33.2995983,32.0462771 L33.2995983,32.0462771 L31.9385148,30.6845505 C32.6571128,29.1775977 32.3941703,27.3209126 31.1486419,26.0753842 Z M26.846729,27.5135146 C27.6392636,26.72098 28.9228194,26.7195833 29.7136311,27.510395 C30.5044427,28.3012067 30.5030461,29.5847625 29.7105115,30.3772971 C28.9179769,31.1698317 27.6344211,31.1712284 26.8436094,30.3804167 C26.0527977,29.589605 26.0541944,28.3060492 26.846729,27.5135146 Z M20.5561275,23.825 L16.7183824,23.825 C16.159194,23.825 15.7058824,24.2783117 15.7058824,24.8375 C15.7058824,25.3966883 16.159194,25.85 16.7183824,25.85 L16.7183824,25.85 L20.5561275,25.85 C21.1153158,25.85 21.5686275,25.3966883 21.5686275,24.8375 C21.5686275,24.2783117 21.1153158,23.825 20.5561275,23.825 L20.5561275,23.825 Z M32.2816176,19.1 L16.7183824,19.1 C16.159194,19.1 15.7058824,19.5533117 15.7058824,20.1125 C15.7058824,20.6716883 16.159194,21.125 16.7183824,21.125 L16.7183824,21.125 L32.2816176,21.125 C32.840806,21.125 33.2941176,20.6716883 33.2941176,20.1125 C33.2941176,19.5533117 32.840806,19.1 32.2816176,19.1 L32.2816176,19.1 Z M32.2816176,14.375 L16.7183824,14.375 C16.159194,14.375 15.7058824,14.8283117 15.7058824,15.3875 C15.7058824,15.9466883 16.159194,16.4 16.7183824,16.4 L16.7183824,16.4 L32.2816176,16.4 C32.840806,16.4 33.2941176,15.9466883 33.2941176,15.3875 C33.2941176,14.8283117 32.840806,14.375 32.2816176,14.375 L32.2816176,14.375 Z" id="ЁЯОи-Icon-╨бolor" fill="#FFFFFF"></path>
    </g>
</svg>