<?xml version="1.0" encoding="UTF-8"?>
<svg width="48px" height="48px" viewBox="0 0 48 48" version="1.1" xmlns="http://www.w3.org/2000/svg" xmlns:xlink="http://www.w3.org/1999/xlink">
    <title>шо╛шобч│╗ч╗Я/ф╕ЪхКбцибхЭЧ</title>
    <g id="шо╛шобч│╗ч╗Я/ф╕ЪхКбцибхЭЧ" stroke="none" stroke-width="1" fill="none" fill-rule="evenodd">
        <rect id="хНаф╜Н" fill="#E8A044" x="0" y="0" width="48" height="48" rx="4"></rect>
        <rect id="хНаф╜Н" x="8" y="8" width="32" height="32"></rect>
        <path d="M36,33.3333333 C36,34.8060927 34.8060927,36 33.3333333,36 L14.6666667,36 C13.1939073,36 12,34.8060927 12,33.3333333 L12,29.2352941 L18.666,29.2344706 L18.6666667,29.254902 C18.6666667,29.9912816 19.2636203,30.5882353 20,30.5882353 C20.7363797,30.5882353 21.3333333,29.9912816 21.3333333,29.254902 L21.3333333,29.254902 L21.333,29.2344706 L26.666,29.2344706 L26.6666667,29.254902 C26.6666667,29.9912816 27.2636203,30.5882353 28,30.5882353 C28.7363797,30.5882353 29.3333333,29.9912816 29.3333333,29.254902 L29.3333333,29.254902 L29.333,29.2344706 L36,29.2352941 L36,33.3333333 Z M28,15.7058824 L20,15.7058824 L20,17.058 L28,17.058 L28,15.7058824 Z M12,19.7254902 C12,18.2527309 13.1939073,17.0588235 14.6666667,17.0588235 L17.333,17.058 L17.3333333,15.7058824 C17.3333333,14.2114648 18.5272407,13 20,13 L28,13 C29.4727593,13 30.6666667,14.2114648 30.6666667,15.7058824 L30.666,17.058 L33.3333333,17.0588235 C34.8060927,17.0588235 36,18.2527309 36,19.7254902 L36,26.5294118 L29.333,26.5284706 L29.3333333,26.5098039 C29.3333333,25.7734243 28.7363797,25.1764706 28,25.1764706 C27.2636203,25.1764706 26.6666667,25.7734243 26.6666667,26.5098039 L26.6666667,26.5098039 L26.666,26.5284706 L21.333,26.5284706 L21.3333333,26.5098039 C21.3333333,25.7734243 20.7363797,25.1764706 20,25.1764706 C19.2636203,25.1764706 18.6666667,25.7734243 18.6666667,26.5098039 L18.6666667,26.5098039 L18.666,26.5284706 L12,26.5294118 L12,19.7254902 Z" id="ЁЯОи-Icon-╨бolor" fill="#FFFFFF"></path>
    </g>
</svg>