<?xml version="1.0" encoding="UTF-8"?>
<svg width="48px" height="48px" viewBox="0 0 48 48" version="1.1" xmlns="http://www.w3.org/2000/svg" xmlns:xlink="http://www.w3.org/1999/xlink">
    <title>шо╛шобч│╗ч╗Я/щФочЫШх┐лцН╖щФо</title>
    <g id="шо╛шобч│╗ч╗Я/щФочЫШх┐лцН╖щФо" stroke="none" stroke-width="1" fill="none" fill-rule="evenodd">
        <rect id="хНаф╜Н" fill="#757A81" x="0" y="0" width="48" height="48" rx="4"></rect>
        <path d="M32.3253483,31.3591179 L16.2823409,31.3591179 C15.549734,31.3591179 14.9557813,31.9530129 14.9557813,32.6856775 L14.9557813,34.6734405 C14.9557813,35.4060474 15.549734,36 16.2823409,36 L32.3253483,36 C33.0579553,36 33.6519079,35.4060474 33.6519079,34.6734405 L33.6519079,32.6856775 C33.6519079,31.9530129 33.0579553,31.3591179 32.3253483,31.3591179 L32.3253483,31.3591179 Z M21.5850031,21.3480921 L17.7408643,21.3480921 C17.0082574,21.3480921 16.4143047,21.9419871 16.4143047,22.6746517 L16.4143047,26.3861346 C16.4143047,27.1187992 17.0082574,27.7126941 17.7408643,27.7126941 L21.5850031,27.7126941 C22.3176678,27.7126941 22.9115627,27.1187992 22.9115627,26.3861346 L22.9115627,22.6746517 C22.9115627,21.9419871 22.3176678,21.3480921 21.5850031,21.3480921 Z M30.8667673,21.3480921 L27.0226284,21.3480921 C26.2900215,21.3480921 25.6960689,21.9419871 25.6960689,22.6746517 L25.6960689,26.3861346 C25.6960689,27.1187992 26.2900215,27.7126941 27.0226284,27.7126941 L30.8667673,27.7126941 C31.5994319,27.7126941 32.1933268,27.1187992 32.1933268,26.3861346 L32.1933268,22.6746517 C32.1933268,21.9419871 31.5994319,21.3480921 30.8667673,21.3480921 Z M12.1706984,21.2817641 L8.32655955,21.2817641 C7.59389494,21.2817641 7,21.8757168 7,22.6083237 L7,26.3198066 C7,27.0524712 7.59389494,27.6463661 8.32655955,27.6463661 L12.1706984,27.6463661 C12.9033053,27.6463661 13.497258,27.0524712 13.497258,26.3198066 L13.497258,22.6083237 C13.497258,21.8757168 12.9033053,21.2817641 12.1706984,21.2817641 Z M40.281072,21.2817641 L36.4369908,21.2817641 C35.7043839,21.2817641 35.1104313,21.8757168 35.1104313,22.6083237 L35.1104313,26.3198066 C35.1104313,27.0524712 35.7043839,27.6463661 36.4369908,27.6463661 L40.2811297,27.6463661 C41.0137366,27.6463661 41.6076892,27.0524712 41.6076892,26.3198066 L41.6076892,22.6083237 C41.6076892,21.8757168 41.0137366,21.2817641 40.2811297,21.2817641 L40.281072,21.2817641 Z M21.5850031,12.066328 L17.7408643,12.066328 C17.0082574,12.066328 16.4143047,12.6602229 16.4143047,13.3928875 L16.4143047,17.1043704 C16.4143047,17.837035 17.0082574,18.43093 17.7408643,18.43093 L21.5850031,18.43093 C22.3176678,18.43093 22.9115627,17.837035 22.9115627,17.1043704 L22.9115627,13.3928875 C22.9115627,12.6602229 22.3176678,12.066328 21.5850031,12.066328 Z M30.8667673,12.066328 L27.0226284,12.066328 C26.2900215,12.066328 25.6960689,12.6602229 25.6960689,13.3928875 L25.6960689,17.1043704 C25.6960689,17.837035 26.2900215,18.43093 27.0226284,18.43093 L30.8667673,18.43093 C31.5994319,18.43093 32.1933268,17.837035 32.1933268,17.1043704 L32.1933268,13.3928875 C32.1933268,12.6602229 31.5994319,12.066328 30.8667673,12.066328 Z M12.1706984,12 L8.32655955,12 C7.59389494,12 7,12.5939526 7,13.3265595 L7,17.0380425 C7,17.7707071 7.59389494,18.364602 8.32655955,18.364602 L12.1706984,18.364602 C12.9033053,18.364602 13.497258,17.7707071 13.497258,17.0380425 L13.497258,13.3265595 C13.497258,12.5939526 12.9033053,12 12.1706984,12 Z M40.281072,12 L36.4369908,12 C35.7043839,12 35.1104313,12.5939526 35.1104313,13.3265595 L35.1104313,17.0380425 C35.1104313,17.7707071 35.7043839,18.364602 36.4369908,18.364602 L40.2811297,18.364602 C41.0137366,18.364602 41.6076892,17.7707071 41.6076892,17.0380425 L41.6076892,13.3265595 C41.6076892,12.5939526 41.0137366,12 40.2811297,12 L40.281072,12 Z" id="ЁЯОи-Icon-╨бolor" fill="#FFFFFF" fill-rule="nonzero"></path>
    </g>
</svg>