<?xml version="1.0" encoding="UTF-8"?>
<svg width="48px" height="48px" viewBox="0 0 48 48" version="1.1" xmlns="http://www.w3.org/2000/svg" xmlns:xlink="http://www.w3.org/1999/xlink">
    <title>设计系统/动效动画</title>
    <g id="设计系统/动效动画" stroke="none" stroke-width="1" fill="none" fill-rule="evenodd">
        <rect id="占位" fill="#D32F2F" x="0" y="0" width="48" height="48" rx="4"></rect>
        <rect id="占位" x="8" y="8" width="32" height="32"></rect>
        <g id="编组" transform="translate(10.000000, 9.000000)">
            <path d="M17.3913475,1.17279164 L17.6366999,6.50751505 L21.56087,10.6710729 C22.1220542,11.2664912 22.0943019,12.2041028 21.4988836,12.765287 C21.3731824,12.8837609 21.2277306,12.9793391 21.0691012,13.0477024 L15.6095301,15.4005733 L12.7992965,20.6691378 C12.4142259,21.3910598 11.5168311,21.6641317 10.7949092,21.2790611 C10.6202638,21.1859059 10.4660565,21.0586977 10.3413951,20.9049497 L9.955,20.4288261 L10.1505264,14.9936557 L6.61810703,10.4853164 C6.11327213,9.84100811 6.2268927,8.90987795 6.87188567,8.40557895 C7.0225111,8.28780983 7.19452051,8.2002597 7.37843439,8.14775347 L12.888973,6.57453024 L16.0896373,1.82541265 C16.390034,1.3796867 16.8906236,1.14913703 17.3913475,1.17279164 Z M13.8752134,0.336170126 L11.2185757,4.27621653 L6.64487008,5.5837456 C6.12991124,5.73076303 5.64828488,5.97590341 5.22653367,6.30565694 L5.03200439,6.46736666 C3.39936303,7.90971577 3.15476903,10.3916757 4.51595349,12.1289218 L7.44790628,15.8708832 L7.397,17.2738261 L6.80199848,16.5397239 L1.25036894,15.6607763 C0.442234967,15.5328305 -0.109166534,14.773988 0.0187792159,13.965854 C0.0498564395,13.7695633 0.120109602,13.5815318 0.225356607,13.4129527 L3.38581441,8.35069945 L2.69578719,2.4507032 C2.60074341,1.63804256 3.18248681,0.90220274 3.99514745,0.807158958 C4.166202,0.787153471 4.33943484,0.797126817 4.50706331,0.836630931 L10.0820281,2.15045341 L14.0474551,0.0988370896 C13.9877436,0.175345517 13.9302773,0.254466749 13.8752134,0.336170126 Z" id="形状结合" fill="#FFFFFF"></path>
            <path d="M17.3198728,20.1969614 L11.9334364,22.1607261 C11.16473,22.440978 10.3143813,22.0450073 10.0341295,21.2763008 C9.9687341,21.0969269 9.93862689,20.9066034 9.94546452,20.715803 L10.1505264,14.9936557 L10.1505264,14.9936557 L6.61872575,10.486106 C6.11409463,9.84205785 6.22711451,8.91086929 6.8711627,8.40623818 C7.02187985,8.28814677 7.1940597,8.20039126 7.37817462,8.14782763 L12.888973,6.57453024 L12.888973,6.57453024 L16.0913506,1.82287051 C16.5486212,1.14437642 17.4693404,0.965039337 18.1478345,1.42230993 C18.3058766,1.52882231 18.4418827,1.66482838 18.5483951,1.82287051 L21.7507726,6.57453024 L21.7507726,6.57453024 L27.261571,8.14782763 C28.0483354,8.37244379 28.5040466,9.19232973 28.2794304,9.97909412 C28.2268668,10.163209 28.1391113,10.3353889 28.0210199,10.486106 L24.4892193,14.9936557 L24.4892193,14.9936557 L24.6942811,20.715803 C24.7235837,21.5334777 24.0844819,22.2200885 23.2668071,22.2493911 C23.0760066,22.2562288 22.8856832,22.2261216 22.7063092,22.1607261 L17.3198728,20.1969614 L17.3198728,20.1969614 Z" id="星形" fill="#FFFFFF"></path>
            <line x1="6.77534601" y1="20" x2="4.77322067" y2="22.6666667" id="路径-2" stroke="#FFFFFF" stroke-width="2" stroke-linecap="round"></line>
            <line x1="8.77747136" y1="25.3333333" x2="7.44272113" y2="28" id="路径-2" stroke="#FFFFFF" stroke-width="2" stroke-linecap="round"></line>
            <line x1="14.7838474" y1="25.3333333" x2="14.1164723" y2="28" id="路径-2" stroke="#FFFFFF" stroke-width="2" stroke-linecap="round"></line>
        </g>
    </g>
</svg>