<?xml version="1.0" encoding="UTF-8"?>
<svg width="48px" height="48px" viewBox="0 0 48 48" version="1.1" xmlns="http://www.w3.org/2000/svg" xmlns:xlink="http://www.w3.org/1999/xlink">
    <title>шо╛шобч│╗ч╗Я/хЬ║цЩпцибх╝П</title>
    <g id="шо╛шобч│╗ч╗Я/хЬ║цЩпцибх╝П" stroke="none" stroke-width="1" fill="none" fill-rule="evenodd">
        <rect id="хНаф╜Н" fill="#9963D8" x="0" y="0" width="48" height="48" rx="4"></rect>
        <rect id="хНаф╜Н" x="8" y="8" width="32" height="32"></rect>
        <path d="M13.3333333,11.7879495 L21.4860854,11.7879495 C22.2224651,11.7879495 22.8194188,12.3849032 22.8194188,13.1212828 L22.8194188,21.2155275 C22.8194188,21.9519072 22.2224651,22.5488608 21.4860854,22.5488608 L13.3333333,22.5488608 C12.5969537,22.5488608 12,21.9519072 12,21.2155275 L12,13.1212828 C12,12.3849032 12.5969537,11.7879495 13.3333333,11.7879495 Z M13.3333333,25.2390887 L21.4860854,25.2390887 C22.2224651,25.2390887 22.8194188,25.8360423 22.8194188,26.572422 L22.8194188,34.6666667 C22.8194188,35.4030463 22.2224651,36 21.4860854,36 L13.3333333,36 C12.5969537,36 12,35.4030463 12,34.6666667 L12,26.572422 C12,25.8360423 12.5969537,25.2390887 13.3333333,25.2390887 Z M31.8062694,11.3780005 L36.6096921,16.1554481 C37.131801,16.6747336 37.1340897,17.5189504 36.6148043,18.0410593 C36.6131049,18.0427679 36.6114008,18.044472 36.6096921,18.0461714 L31.8062694,22.823619 C31.2861613,23.3409146 30.4458785,23.3409146 29.9257704,22.823619 L25.1223477,18.0461714 C24.6002389,17.526886 24.5979501,16.6826691 25.1172356,16.1605603 C25.118935,16.1588516 25.120639,16.1571476 25.1223477,16.1554481 L29.9257704,11.3780005 C30.4458785,10.860705 31.2861613,10.860705 31.8062694,11.3780005 Z M26.8576068,25.2390887 L35.0103589,25.2390887 C35.7467385,25.2390887 36.3436922,25.8360423 36.3436922,26.572422 L36.3436922,34.6666667 C36.3436922,35.4030463 35.7467385,36 35.0103589,36 L26.8576068,36 C26.1212271,36 25.5242734,35.4030463 25.5242734,34.6666667 L25.5242734,26.572422 C25.5242734,25.8360423 26.1212271,25.2390887 26.8576068,25.2390887 Z" id="ЁЯОи-Icon-╨бolor" fill="#FFFFFF"></path>
    </g>
</svg>