<?xml version="1.0" encoding="UTF-8"?>
<svg width="48px" height="48px" viewBox="0 0 48 48" version="1.1" xmlns="http://www.w3.org/2000/svg" xmlns:xlink="http://www.w3.org/1999/xlink">
    <title>шо╛шобч│╗ч╗Я/щб╡щЭвцибчЙИ</title>
    <g id="шо╛шобч│╗ч╗Я/щб╡щЭвцибчЙИ" stroke="none" stroke-width="1" fill="none" fill-rule="evenodd">
        <rect id="хНаф╜Н" fill="#E34D59" x="0" y="0" width="48" height="48" rx="4"></rect>
        <rect id="хНаф╜Н" x="8" y="8" width="32" height="32"></rect>
        <path d="M15.055,16.9268293 L15.0540541,31.3821138 C15.0540541,32.7982286 16.1578885,33.956529 17.5520765,34.0435341 L17.7207207,34.0487805 L29.918,34.0478293 L29.9189189,35.3333333 C29.9189189,36.8060927 28.7250116,38 27.2522523,38 L13.6666667,38 C12.1939073,38 11,36.8060927 11,35.3333333 L11,19.5934959 C11,18.1207366 12.1939073,16.9268293 13.6666667,16.9268293 L15.055,16.9268293 Z M33.3333333,11 C34.8060927,11 36,12.1939073 36,13.6666667 L36,29.4065041 C36,30.8792634 34.8060927,32.0731707 33.3333333,32.0731707 L19.7477477,32.0731707 C18.2749884,32.0731707 17.0810811,30.8792634 17.0810811,29.4065041 L17.0810811,13.6666667 C17.0810811,12.1939073 18.2749884,11 19.7477477,11 L33.3333333,11 Z M30.6126126,13.6341463 L30.5765766,13.6341463 C29.8835134,13.6341463 29.3139555,14.1629357 29.2493469,14.8390708 L29.2432432,14.9674797 L29.2432432,28.1056911 C29.2432432,28.7987543 29.7720327,29.3683121 30.4481677,29.4329208 L30.5765766,29.4390244 L30.6126126,29.4390244 C31.3056758,29.4390244 31.8752337,28.910235 31.9398423,28.2341 L31.9459459,28.1056911 L31.9459459,14.9674797 C31.9459459,14.2311 31.3489923,13.6341463 30.6126126,13.6341463 Z M25.2072072,21.5365854 L22.4684685,21.5365854 C21.7754053,21.5365854 21.2058474,22.0653748 21.1412388,22.7415098 L21.1351351,22.8699187 L21.1351351,28.1056911 C21.1351351,28.7987543 21.6639245,29.3683121 22.3400596,29.4329208 L22.4684685,29.4390244 L25.2072072,29.4390244 C25.9002704,29.4390244 26.4698283,28.910235 26.5344369,28.2341 L26.5405405,28.1056911 L26.5405405,22.8699187 C26.5405405,22.133539 25.9435869,21.5365854 25.2072072,21.5365854 Z M25.2072072,13.6341463 L22.4684685,13.6341463 C21.7754053,13.6341463 21.2058474,14.1629357 21.1412388,14.8390708 L21.1351351,14.9674797 L21.1351351,18.8861789 C21.1351351,19.5792421 21.6639245,20.1487999 22.3400596,20.2134086 L22.4684685,20.2195122 L25.2072072,20.2195122 C25.9002704,20.2195122 26.4698283,19.6907228 26.5344369,19.0145878 L26.5405405,18.8861789 L26.5405405,14.9674797 C26.5405405,14.2311 25.9435869,13.6341463 25.2072072,13.6341463 Z" id="ЁЯОи-Icon-╨бolor" fill="#FFFFFF"></path>
    </g>
</svg>