<svg width="440" height="440" viewBox="0 0 440 440" fill="none" xmlns="http://www.w3.org/2000/svg">
<path fill-rule="evenodd" clip-rule="evenodd" d="M220 440C341.503 440 440 341.503 440 220C440 98.4974 341.503 0 220 0C98.4974 0 0 98.4974 0 220C0 341.503 98.4974 440 220 440Z" fill="url(#paint0_radial)"/>
<mask id="mask0" mask-type="alpha" maskUnits="userSpaceOnUse" x="0" y="0" width="440" height="440">
<path fill-rule="evenodd" clip-rule="evenodd" d="M220 440C341.503 440 440 341.503 440 220C440 98.4974 341.503 0 220 0C98.4974 0 0 98.4974 0 220C0 341.503 98.4974 440 220 440Z" fill="white"/>
</mask>
<g mask="url(#mask0)">
<g filter="url(#filter0_i)">
<path fill-rule="evenodd" clip-rule="evenodd" d="M235 101L336 206L249 186L235 101Z" fill="#E8F5FF"/>
</g>
<mask id="mask1" mask-type="alpha" maskUnits="userSpaceOnUse" x="235" y="101" width="101" height="105">
<path fill-rule="evenodd" clip-rule="evenodd" d="M235 101L336 206L249 186L235 101Z" fill="white"/>
</mask>
<g mask="url(#mask1)">
<g filter="url(#filter1_f)">
<path fill-rule="evenodd" clip-rule="evenodd" d="M226 84L291 264L172 127L226 84Z" fill="#64A4D8"/>
</g>
</g>
<g filter="url(#filter2_i)">
<path fill-rule="evenodd" clip-rule="evenodd" d="M38 242L-162 24L11.6634 61.7143L38 242Z" fill="url(#paint1_radial)"/>
</g>
<mask id="mask2" mask-type="alpha" maskUnits="userSpaceOnUse" x="-162" y="24" width="200" height="218">
<path fill-rule="evenodd" clip-rule="evenodd" d="M38 242L-162 24L11.6634 61.7143L38 242Z" fill="white"/>
</mask>
<g mask="url(#mask2)">
<g filter="url(#filter3_f)">
<path fill-rule="evenodd" clip-rule="evenodd" d="M10 318V26L151 176.017L10 318Z" fill="#64A4D8"/>
</g>
</g>
<g filter="url(#filter4_i)">
<path fill-rule="evenodd" clip-rule="evenodd" d="M275.401 338.588L235.401 101L136.607 219.794L275.401 338.588Z" fill="url(#paint2_radial)"/>
</g>
<mask id="mask3" mask-type="alpha" maskUnits="userSpaceOnUse" x="148" y="101" width="128" height="238">
<path fill-rule="evenodd" clip-rule="evenodd" d="M275.5 338.5L235.401 101L148 206.5L275.5 338.5Z" fill="white"/>
</mask>
<g mask="url(#mask3)">
<g filter="url(#filter5_f)">
<path fill-rule="evenodd" clip-rule="evenodd" d="M135 179L286 362L69 229L135 179Z" fill="#4492D2"/>
</g>
</g>
<g filter="url(#filter6_i)">
<path fill-rule="evenodd" clip-rule="evenodd" d="M97.893 576.786L-70.1392 186.896L7.89297 61L275.786 338.893L97.893 576.786Z" fill="url(#paint3_radial)"/>
</g>
</g>
<defs>
<filter id="filter0_i" x="235" y="101" width="101" height="105" filterUnits="userSpaceOnUse" color-interpolation-filters="sRGB">
<feFlood flood-opacity="0" result="BackgroundImageFix"/>
<feBlend mode="normal" in="SourceGraphic" in2="BackgroundImageFix" result="shape"/>
<feColorMatrix in="SourceAlpha" type="matrix" values="0 0 0 0 0 0 0 0 0 0 0 0 0 0 0 0 0 0 127 0" result="hardAlpha"/>
<feOffset dy="3"/>
<feComposite in2="hardAlpha" operator="arithmetic" k2="-1" k3="1"/>
<feColorMatrix type="matrix" values="0 0 0 0 1 0 0 0 0 1 0 0 0 0 1 0 0 0 1 0"/>
<feBlend mode="normal" in2="shape" result="effect1_innerShadow"/>
</filter>
<filter id="filter1_f" x="150.254" y="62.2537" width="162.493" height="223.493" filterUnits="userSpaceOnUse" color-interpolation-filters="sRGB">
<feFlood flood-opacity="0" result="BackgroundImageFix"/>
<feBlend mode="normal" in="SourceGraphic" in2="BackgroundImageFix" result="shape"/>
<feGaussianBlur stdDeviation="10.8731" result="effect1_foregroundBlur"/>
</filter>
<filter id="filter2_i" x="-162" y="24" width="200" height="218" filterUnits="userSpaceOnUse" color-interpolation-filters="sRGB">
<feFlood flood-opacity="0" result="BackgroundImageFix"/>
<feBlend mode="normal" in="SourceGraphic" in2="BackgroundImageFix" result="shape"/>
<feColorMatrix in="SourceAlpha" type="matrix" values="0 0 0 0 0 0 0 0 0 0 0 0 0 0 0 0 0 0 127 0" result="hardAlpha"/>
<feOffset dy="-2"/>
<feComposite in2="hardAlpha" operator="arithmetic" k2="-1" k3="1"/>
<feColorMatrix type="matrix" values="0 0 0 0 1 0 0 0 0 1 0 0 0 0 1 0 0 0 0.750934 0"/>
<feBlend mode="normal" in2="shape" result="effect1_innerShadow"/>
</filter>
<filter id="filter3_f" x="-11.7463" y="4.25375" width="184.493" height="335.493" filterUnits="userSpaceOnUse" color-interpolation-filters="sRGB">
<feFlood flood-opacity="0" result="BackgroundImageFix"/>
<feBlend mode="normal" in="SourceGraphic" in2="BackgroundImageFix" result="shape"/>
<feGaussianBlur stdDeviation="10.8731" result="effect1_foregroundBlur"/>
</filter>
<filter id="filter4_i" x="136.607" y="101" width="138.794" height="237.588" filterUnits="userSpaceOnUse" color-interpolation-filters="sRGB">
<feFlood flood-opacity="0" result="BackgroundImageFix"/>
<feBlend mode="normal" in="SourceGraphic" in2="BackgroundImageFix" result="shape"/>
<feColorMatrix in="SourceAlpha" type="matrix" values="0 0 0 0 0 0 0 0 0 0 0 0 0 0 0 0 0 0 127 0" result="hardAlpha"/>
<feOffset dy="-2"/>
<feComposite in2="hardAlpha" operator="arithmetic" k2="-1" k3="1"/>
<feColorMatrix type="matrix" values="0 0 0 0 1 0 0 0 0 1 0 0 0 0 1 0 0 0 0.750934 0"/>
<feBlend mode="normal" in2="shape" result="effect1_innerShadow"/>
</filter>
<filter id="filter5_f" x="25.5075" y="135.507" width="303.985" height="269.985" filterUnits="userSpaceOnUse" color-interpolation-filters="sRGB">
<feFlood flood-opacity="0" result="BackgroundImageFix"/>
<feBlend mode="normal" in="SourceGraphic" in2="BackgroundImageFix" result="shape"/>
<feGaussianBlur stdDeviation="21.7463" result="effect1_foregroundBlur"/>
</filter>
<filter id="filter6_i" x="-205" y="61" width="515.786" height="515.786" filterUnits="userSpaceOnUse" color-interpolation-filters="sRGB">
<feFlood flood-opacity="0" result="BackgroundImageFix"/>
<feBlend mode="normal" in="SourceGraphic" in2="BackgroundImageFix" result="shape"/>
<feColorMatrix in="SourceAlpha" type="matrix" values="0 0 0 0 0 0 0 0 0 0 0 0 0 0 0 0 0 0 127 0" result="hardAlpha"/>
<feOffset dy="-2"/>
<feComposite in2="hardAlpha" operator="arithmetic" k2="-1" k3="1"/>
<feColorMatrix type="matrix" values="0 0 0 0 1 0 0 0 0 1 0 0 0 0 1 0 0 0 1 0"/>
<feBlend mode="normal" in2="shape" result="effect1_innerShadow"/>
</filter>
<radialGradient id="paint0_radial" cx="0" cy="0" r="1" gradientUnits="userSpaceOnUse" gradientTransform="translate(115.261 41.1847) rotate(57.9705) scale(462.938)">
<stop stop-color="#51C3F7"/>
<stop offset="1" stop-color="#046CF4"/>
</radialGradient>
<radialGradient id="paint1_radial" cx="0" cy="0" r="1" gradientUnits="userSpaceOnUse" gradientTransform="translate(-192.627 -5.71924) rotate(15.1448) scale(361.787 390.086)">
<stop stop-color="white"/>
<stop offset="1" stop-color="#5CB5FF"/>
</radialGradient>
<radialGradient id="paint2_radial" cx="0" cy="0" r="1" gradientUnits="userSpaceOnUse" gradientTransform="translate(233.139 65.4187) rotate(117.423) scale(281.81 346.877)">
<stop stop-color="white"/>
<stop offset="1" stop-color="#7AC2FF"/>
</radialGradient>
<radialGradient id="paint3_radial" cx="0" cy="0" r="1" gradientUnits="userSpaceOnUse" gradientTransform="translate(68.476 164.058) rotate(58.923) scale(340.94 253.845)">
<stop stop-color="white"/>
<stop offset="1" stop-color="#CBE7FF"/>
</radialGradient>
</defs>
</svg>
